<svg version="1.1" id="Layer_1" xmlns="http://www.w3.org/2000/svg" xmlns:xlink="http://www.w3.org/1999/xlink" x="0px" y="0px"
	 width="100%" viewBox="0 0 840 859" enable-background="new 0 0 840 859" xml:space="preserve">
<path fill="#000000" opacity="1.000000" stroke="none" 
	d="
M1.000003,422.000000 
	C1.000000,281.702667 1.000000,141.405334 1.000000,1.054001 
	C280.892151,1.054001 560.784363,1.054001 841.000000,1.054001 
	C841.000000,129.692307 841.000000,258.384888 840.659241,387.842896 
	C839.549561,385.778687 838.869141,382.920807 837.977539,380.130402 
	C837.466187,378.530151 836.612000,377.039490 835.961365,375.472107 
	C836.010559,375.444763 835.923645,375.373199 835.916321,374.868408 
	C835.285400,368.232910 834.945007,362.056885 833.972107,355.982147 
	C832.502502,346.805450 830.911926,337.623505 828.770386,328.586609 
	C826.957092,320.934662 824.231934,313.501984 822.017700,305.940826 
	C820.237793,299.862915 819.158752,293.520721 816.810120,287.681335 
	C812.592957,277.196106 807.768982,266.947754 802.988708,256.698212 
	C798.083862,246.181458 793.357056,235.544586 787.752625,225.402222 
	C782.816040,216.468597 776.844116,208.099655 771.201416,199.565964 
	C766.588501,192.589706 761.786743,185.738312 757.054626,178.476501 
	C755.377563,175.762756 753.956909,173.174683 751.993347,171.100510 
	C749.228577,168.180115 746.061401,165.640671 743.034424,162.969757 
	C743.002441,163.001221 743.070984,162.942123 743.055847,162.573639 
	C739.666870,155.932785 735.301514,150.568695 729.027710,146.964661 
	C729.005066,146.997391 729.071411,146.953278 729.041870,146.591949 
	C726.015686,142.807465 723.259216,139.131683 719.975769,136.010269 
	C711.448547,127.903999 702.849365,119.858025 693.977966,112.133530 
	C685.229309,104.515823 676.111572,97.321945 666.999268,89.617310 
	C660.905640,85.606903 654.960083,81.934731 649.033447,78.232307 
	C641.364990,73.441727 633.711487,68.627007 625.901001,63.497570 
	C623.545166,62.430069 621.339905,61.687668 619.080078,60.562355 
	C613.685791,57.500217 608.346008,54.820992 602.642212,52.069546 
	C601.200256,51.322769 600.185059,50.506557 599.034119,49.996899 
	C592.132996,46.940849 585.277039,43.760300 578.252930,41.012344 
	C573.291382,39.071262 568.087891,37.748550 562.604065,36.069275 
	C561.106689,35.320316 560.066650,34.472393 558.876587,34.014332 
	C553.611206,31.987638 548.302612,30.072998 542.588623,28.037464 
	C539.190430,27.451965 536.164124,27.138990 533.249023,26.391905 
	C529.779724,25.502792 526.405884,24.240961 522.579468,23.064657 
	C521.007568,22.949738 519.812988,23.074923 518.692200,22.843361 
	C513.863586,21.845732 509.074890,20.649433 504.236206,19.707479 
	C499.965576,18.876102 495.664612,18.145603 491.345856,17.633549 
	C487.859161,17.220148 484.325989,17.198719 480.453918,16.980583 
	C478.737000,16.609901 477.379578,16.262041 476.010559,15.484229 
	C471.107971,14.023941 466.252411,12.364590 461.319031,12.086599 
	C448.806396,11.381525 436.258789,11.030335 423.725342,11.035254 
	C410.687561,11.040371 397.649963,11.627645 384.612457,11.966716 
	C383.954590,11.983824 383.285858,11.996729 382.643188,12.120450 
	C375.761658,13.445210 368.884399,14.791935 361.559814,16.066456 
	C355.066956,16.807625 348.975800,17.375240 342.985046,18.484699 
	C335.941559,19.789118 328.985168,21.563715 321.587219,23.062328 
	C315.833893,24.438080 310.480560,25.872356 305.136810,27.341385 
	C303.359619,27.829947 301.606934,28.407675 299.486481,29.109428 
	C291.000153,31.858473 282.674652,33.958050 274.787537,37.143101 
	C263.583038,41.667782 252.626907,46.834827 241.704254,52.021385 
	C232.650269,56.320614 223.662048,60.799404 214.898575,65.656685 
	C207.546265,69.731804 200.458237,74.314346 193.451569,78.970718 
	C189.422226,81.648476 185.787369,84.919884 181.584045,87.958298 
	C177.942719,89.710175 174.350266,90.992676 171.506577,93.227837 
	C163.292282,99.684380 155.011551,106.135101 147.428680,113.299149 
	C133.683258,126.285393 120.245689,139.612457 107.046410,153.154770 
	C101.467560,158.878632 96.730209,165.439087 91.771332,171.745865 
	C87.406494,177.297104 83.237862,183.003937 79.035896,188.681503 
	C76.024086,192.750961 73.100250,196.885513 70.064651,201.385437 
	C68.535667,203.767838 66.915977,205.657837 65.653183,207.762024 
	C61.784859,214.207779 57.871403,220.638657 54.336857,227.267975 
	C52.195660,231.283951 50.723698,235.656754 48.566147,239.925751 
	C47.481892,241.114151 46.642296,242.183517 46.105759,243.387909 
	C42.350811,251.816895 38.542435,260.225281 34.985119,268.738007 
	C32.423042,274.869110 30.110439,281.111511 27.887430,287.375549 
	C24.819946,296.019196 21.786539,304.681366 19.046144,313.431946 
	C17.621777,317.980164 17.020466,322.779816 15.757025,327.386292 
	C13.965999,333.916290 11.398703,340.271332 10.078824,346.883911 
	C7.978309,357.407440 6.281059,368.041687 5.070014,378.703735 
	C3.926755,388.769012 3.573266,398.927216 2.993708,409.051483 
	C2.794273,412.535400 3.086639,416.048126 2.870538,419.530060 
	C2.817244,420.388763 1.653351,421.178528 1.000003,422.000000 
z"/>
<path fill="#000000" opacity="1.000000" stroke="none" 
	d="
M841.000000,475.000000 
	C841.000000,603.300354 841.000000,731.600769 841.000000,859.950562 
	C561.104858,859.950562 281.209747,859.950562 1.000000,859.950562 
	C1.000000,720.640991 1.000000,581.281738 1.375773,441.152527 
	C2.154566,442.073761 2.747596,443.745026 2.928348,445.459686 
	C3.800837,453.736603 2.990505,461.967133 4.486820,470.426971 
	C6.386427,481.167053 6.529931,492.288696 8.904690,503.111298 
	C10.389717,509.879059 10.896103,516.856628 12.020307,523.710754 
	C12.506764,526.676636 13.347635,529.596924 14.197407,532.487976 
	C15.729177,537.699219 17.505348,542.840698 18.954359,548.073608 
	C19.932205,551.604919 20.131916,555.385132 21.369493,558.804260 
	C24.000389,566.072876 27.170975,573.143860 29.954784,580.359802 
	C33.423058,589.349792 36.071617,598.721313 40.262665,607.350891 
	C45.531445,618.199524 51.760132,628.611145 58.018929,638.942200 
	C65.581642,651.425598 73.573837,663.650146 81.474678,675.925903 
	C82.680710,677.799805 84.396049,679.345886 85.924545,681.409424 
	C89.990829,687.314026 93.770828,693.049011 98.118355,698.315491 
	C100.581329,701.298950 103.975380,703.513733 106.970123,706.040466 
	C106.990173,706.006165 106.920464,706.044373 106.946701,706.418030 
	C107.069801,707.433777 106.930748,708.301819 107.297874,708.684998 
	C117.464523,719.295410 127.660866,729.877747 137.917999,740.400635 
	C139.299759,741.818237 141.015793,742.914856 142.602570,744.126709 
	C148.716614,748.796021 154.840973,753.451782 160.974197,758.487549 
	C169.216629,765.244080 177.248245,771.904785 185.733459,777.926331 
	C193.754852,783.618713 202.040634,789.014465 210.596924,793.857300 
	C220.418213,799.416260 230.566116,804.431213 240.762726,809.281799 
	C247.218521,812.352844 254.727127,813.661926 260.498962,817.609985 
	C268.432678,823.036804 277.648987,824.288391 286.080261,827.901428 
	C291.022736,830.019409 296.292816,831.416382 301.482147,832.905518 
	C311.238617,835.705139 320.962616,838.692810 330.851410,840.934875 
	C340.237976,843.062988 349.781769,844.603577 359.324310,845.905029 
	C367.237640,846.984192 375.252289,847.310608 383.216522,848.031860 
	C385.787048,848.264648 388.339996,848.691895 390.972229,849.293823 
	C391.355255,849.661377 391.666992,849.765320 392.428711,849.948486 
	C395.921143,849.974915 398.963593,849.921997 402.470306,849.935547 
	C422.952789,849.289856 443.088531,851.879028 463.442322,847.940796 
	C470.265411,847.304260 476.635376,846.590454 483.409790,845.948364 
	C487.727539,845.357239 491.640900,844.695068 495.553955,844.030884 
	C496.356781,843.894653 497.164276,843.778564 497.959625,843.606628 
	C504.990540,842.087036 512.012085,840.522888 519.051453,839.043823 
	C522.787842,838.258667 526.668701,837.978455 530.284119,836.836365 
	C538.940735,834.101868 547.449158,830.902161 556.075073,828.065491 
	C561.829407,826.173096 567.810425,824.911133 573.442017,822.727539 
	C576.594604,821.505249 579.241577,818.978882 582.525635,817.033264 
	C588.430725,815.664551 594.610901,815.783691 598.042236,810.023071 
	C598.007385,810.016785 598.007629,810.087585 598.412537,810.049988 
	C600.228333,809.387817 601.639282,808.763245 603.443726,808.090942 
	C607.606262,806.374390 611.434875,804.826660 615.129822,803.007446 
	C620.281982,800.470886 625.407898,797.861877 630.407227,795.039612 
	C634.819763,792.548645 639.113647,789.827148 643.312073,786.988647 
	C644.776123,785.998718 645.798462,784.355469 647.409485,783.007935 
	C648.565308,782.826172 649.480591,782.856506 650.081177,782.436646 
	C659.188049,776.071472 668.302307,769.713989 677.289124,763.181946 
	C679.145325,761.832703 680.491028,759.781311 682.037781,758.030396 
	C682.003540,758.007263 682.047729,758.077209 682.418213,758.059692 
	C686.550842,755.278503 690.481567,752.711914 694.019348,749.685913 
	C696.635803,747.448059 698.740417,744.611938 701.039917,742.025513 
	C701.006836,742.008789 701.039795,742.075256 701.400879,742.041748 
	C705.817017,738.547241 710.048645,735.268616 713.870361,731.566772 
	C716.867004,728.664062 719.356323,725.237610 722.038391,722.023682 
	C722.005737,722.003601 722.046936,722.068237 722.406372,722.039551 
	C728.855896,715.633057 735.148254,709.432678 740.959412,702.810120 
	C744.391052,698.899292 747.061096,694.320129 750.040894,690.021545 
	C750.008057,690.001526 750.049072,690.066467 750.422974,690.040161 
	C752.888489,687.027527 754.980164,684.041077 757.038208,681.026123 
	C757.004578,680.997559 757.064636,681.060364 757.432068,681.049316 
	C765.210388,670.276123 772.741821,659.593933 779.958618,648.703186 
	C782.119141,645.442749 783.400635,641.599854 785.050415,638.016785 
	C785.015930,638.009766 785.034607,638.077515 785.419556,638.047852 
	C789.542847,631.709351 793.537720,625.535706 796.952576,619.056396 
	C800.899902,611.566956 804.482361,603.873413 807.932922,596.138977 
	C809.663208,592.260498 810.748901,588.094360 812.477417,583.888916 
	C814.230896,579.850586 815.651428,575.988220 817.030518,572.111023 
	C818.613586,567.659973 820.290649,563.236328 821.687744,558.726685 
	C823.282471,553.578674 824.697937,548.370361 826.024170,543.145874 
	C826.696655,540.496826 826.775696,537.690613 827.518005,535.067200 
	C829.228271,529.023438 831.438782,523.112488 832.956848,517.025574 
	C834.316040,511.575714 835.222107,505.989258 835.961609,500.414490 
	C836.854187,493.685852 837.192566,486.882172 838.144714,480.163971 
	C838.402588,478.344299 840.011230,476.716064 841.000000,475.000000 
z"/>
<path fill="#E7F1E8" opacity="1.000000" stroke="none" 
	d="
M85.875839,681.043579 
	C84.396049,679.345886 82.680710,677.799805 81.474678,675.925903 
	C73.573837,663.650146 65.581642,651.425598 58.018929,638.942200 
	C51.760132,628.611145 45.531445,618.199524 40.262665,607.350891 
	C36.071617,598.721313 33.423058,589.349792 29.954784,580.359802 
	C27.170975,573.143860 24.000389,566.072876 21.369493,558.804260 
	C20.131916,555.385132 19.932205,551.604919 18.954359,548.073608 
	C17.505348,542.840698 15.729177,537.699219 14.197407,532.487976 
	C13.347635,529.596924 12.506764,526.676636 12.020307,523.710754 
	C10.896103,516.856628 10.389717,509.879059 8.904690,503.111298 
	C6.529931,492.288696 6.386427,481.167053 4.486820,470.426971 
	C2.990505,461.967133 3.800837,453.736603 2.928348,445.459686 
	C2.747596,443.745026 2.154566,442.073761 1.375773,440.691254 
	C1.000000,434.978851 1.000000,428.957703 1.000003,422.468262 
	C1.653351,421.178528 2.817244,420.388763 2.870538,419.530060 
	C3.086639,416.048126 2.794273,412.535400 2.993708,409.051483 
	C3.573266,398.927216 3.926755,388.769012 5.070014,378.703735 
	C6.281059,368.041687 7.978309,357.407440 10.078824,346.883911 
	C11.398703,340.271332 13.965999,333.916290 15.757025,327.386292 
	C17.020466,322.779816 17.621777,317.980164 19.046144,313.431946 
	C21.786539,304.681366 24.819946,296.019196 27.887430,287.375549 
	C30.110439,281.111511 32.423042,274.869110 34.985119,268.738007 
	C38.542435,260.225281 42.350811,251.816895 46.105759,243.387909 
	C46.642296,242.183517 47.481892,241.114151 48.593353,240.352112 
	C49.057678,241.289261 49.109863,241.856613 49.112747,242.770966 
	C47.114895,247.162567 45.102249,251.177704 43.227337,255.256149 
	C9.936522,327.673279 -1.666551,403.453552 7.866035,482.550018 
	C12.737532,522.971191 23.592960,561.706421 39.887978,598.979492 
	C52.610844,628.081726 68.867943,655.107300 87.074799,680.850159 
	C86.409653,680.963318 86.142746,681.003479 85.875839,681.043579 
z"/>
<path fill="#E9F2EA" opacity="1.000000" stroke="none" 
	d="
M841.000000,474.531311 
	C840.011230,476.716064 838.402588,478.344299 838.144714,480.163971 
	C837.192566,486.882172 836.854187,493.685852 835.961609,500.414490 
	C835.222107,505.989258 834.316040,511.575714 832.956848,517.025574 
	C831.438782,523.112488 829.228271,529.023438 827.518005,535.067200 
	C826.775696,537.690613 826.696655,540.496826 826.024170,543.145874 
	C824.697937,548.370361 823.282471,553.578674 821.687744,558.726685 
	C820.290649,563.236328 818.613586,567.659973 817.030518,572.111023 
	C815.651428,575.988220 814.230896,579.850586 812.206482,583.712952 
	C811.339172,583.355652 811.094116,583.004883 810.871948,582.290833 
	C811.436462,580.358887 811.943909,578.777527 812.524597,577.223511 
	C833.018250,522.385742 841.525330,465.721954 838.295532,407.296051 
	C837.708984,396.685699 836.717041,386.097778 835.912231,375.499481 
	C836.612000,377.039490 837.466187,378.530151 837.977539,380.130402 
	C838.869141,382.920807 839.549561,385.778687 840.659241,388.304138 
	C841.000000,416.687561 841.000000,445.375122 841.000000,474.531311 
z"/>
<path fill="#0D9F16" opacity="1.000000" stroke="none" 
	d="
M835.961426,375.472107 
	C836.717041,386.097778 837.708984,396.685699 838.295532,407.296051 
	C841.525330,465.721954 833.018250,522.385742 812.524597,577.223511 
	C811.943909,578.777527 811.436462,580.358887 810.603638,582.529846 
	C802.390076,599.867126 794.452698,616.594971 786.571350,633.349121 
	C785.871521,634.837036 785.538147,636.497314 785.034546,638.077515 
	C785.034607,638.077515 785.015930,638.009766 784.732056,637.795166 
	C775.413513,651.298767 766.368042,665.009949 757.381042,678.759460 
	C756.998291,679.345215 757.157776,680.285339 757.064575,681.060364 
	C757.064636,681.060364 757.004578,680.997559 756.776489,680.718689 
	C754.381958,683.648743 752.215515,686.857605 750.049072,690.066467 
	C750.049072,690.066467 750.008057,690.001526 749.772705,689.727783 
	C740.436707,699.683167 731.326660,709.903992 722.271667,720.173340 
	C721.925537,720.565857 722.109802,721.426025 722.046936,722.068237 
	C722.046936,722.068237 722.005737,722.003601 721.778931,721.716187 
	C714.770935,727.812988 707.981689,734.188843 701.236877,740.611267 
	C700.958740,740.876160 701.096069,741.577332 701.039795,742.075256 
	C701.039795,742.075256 701.006836,742.008789 700.769409,741.725769 
	C694.834717,746.197144 689.117920,750.928528 683.466797,755.737183 
	C682.807434,756.298218 682.511902,757.286804 682.047729,758.077209 
	C682.047729,758.077209 682.003540,758.007263 681.772034,757.723145 
	C669.687805,765.957275 657.835083,774.475525 645.634277,783.039001 
	C631.180359,791.030029 617.074463,798.975891 602.612671,806.972656 
	C600.840393,808.044922 599.424011,809.066284 598.007629,810.087585 
	C598.007629,810.087585 598.007385,810.016785 597.718994,809.750610 
	C591.867615,811.949951 586.304688,814.415527 580.373901,816.916138 
	C563.863464,822.414734 547.917480,828.586670 531.522034,833.139771 
	C515.611267,837.558350 499.239044,840.315002 482.669220,843.749207 
	C475.835876,844.522949 469.402802,845.348938 462.537903,846.131714 
	C458.307831,846.392883 454.513885,846.882629 450.710693,846.969543 
	C434.486481,847.340576 418.259552,847.592651 401.657135,847.730164 
	C395.309021,847.111633 389.330994,846.721375 383.366699,846.179626 
	C324.708344,840.851318 269.453644,824.140381 218.392166,794.834595 
	C198.548645,783.445923 180.130753,769.573303 160.913208,756.538452 
	C144.416000,740.802490 128.077530,725.351196 111.707642,709.933350 
	C110.215042,708.527527 108.520958,707.335632 106.920456,706.044373 
	C106.920464,706.044373 106.990173,706.006165 107.280273,705.778198 
	C100.871262,697.292603 94.172142,689.034851 87.473038,680.777161 
	C68.867943,655.107300 52.610844,628.081726 39.887978,598.979492 
	C23.592960,561.706421 12.737532,522.971191 7.866035,482.550018 
	C-1.666551,403.453552 9.936522,327.673279 43.227337,255.256149 
	C45.102249,251.177704 47.114895,247.162567 49.383656,242.538666 
	C57.517670,228.327072 65.331474,214.694763 73.424393,200.881195 
	C92.222412,172.717911 113.539856,147.048065 138.545670,124.676575 
	C152.504974,112.187859 167.470108,100.823395 182.316498,88.874176 
	C203.224762,74.571060 224.563202,61.573006 247.584671,51.762768 
	C265.457428,44.146584 283.849426,37.748947 302.394958,30.828968 
	C309.220642,28.987820 315.662048,27.127388 322.520203,25.261538 
	C335.962128,22.744669 348.987244,20.233219 362.434875,17.748985 
	C378.219543,16.472832 393.569702,14.304958 408.946991,14.091399 
	C426.968353,13.841119 445.012054,15.329186 463.049133,15.976699 
	C467.367188,16.131710 471.697510,15.944174 476.022186,15.914181 
	C477.379578,16.262041 478.737000,16.609901 480.641754,17.332624 
	C494.605225,20.239681 508.021332,22.771877 521.742432,25.544292 
	C529.015808,27.563633 535.984192,29.342756 543.219971,31.361866 
	C549.986206,33.675220 556.484985,35.748589 563.297241,38.006622 
	C576.745117,43.710957 589.879517,49.230618 603.309814,54.949539 
	C608.389221,57.473259 613.172791,59.797714 618.136719,62.406075 
	C620.802979,63.973946 623.289001,65.257912 626.006592,66.773346 
	C639.479858,75.372414 652.721436,83.740013 666.131104,92.392769 
	C687.612366,108.230064 707.409241,125.504234 725.527466,144.698410 
	C726.459290,145.685547 727.878906,146.212219 729.071411,146.953278 
	C729.071411,146.953278 729.005066,146.997391 728.704712,147.216125 
	C732.802307,152.581848 737.188416,157.739044 741.632568,162.845795 
	C741.855042,163.101532 742.579956,162.920044 743.070984,162.942123 
	C743.070984,162.942123 743.002441,163.001221 742.688904,163.200592 
	C747.249878,169.599350 752.124329,175.798737 757.104187,182.323669 
	C793.392883,231.863480 818.079346,286.219971 830.275085,346.149261 
	C832.253540,355.871124 834.045471,365.630951 835.923584,375.373199 
	C835.923645,375.373199 836.010559,375.444763 835.961426,375.472107 
M580.778625,213.738495 
	C537.057556,181.207321 487.807739,164.335266 433.472626,163.154907 
	C365.146454,161.670639 304.745880,183.052292 253.549362,228.695328 
	C199.718674,276.686829 170.601135,337.056152 166.051666,408.929199 
	C162.790497,460.449707 174.485458,508.766479 200.083176,553.633850 
	C202.140213,557.239380 202.565247,560.397949 201.186050,564.439575 
	C189.851425,597.655151 178.740036,630.946899 167.567505,664.217773 
	C163.836395,675.328674 160.124252,686.445984 156.142838,698.338806 
	C158.732239,697.672180 160.474899,697.316467 162.158417,696.776489 
	C206.195328,682.652771 250.239105,668.550171 294.236359,654.303833 
	C298.339264,652.975342 301.739258,653.189514 305.610565,655.200562 
	C353.028778,679.832642 403.247406,689.629700 456.440369,683.144287 
	C513.018677,676.246155 563.332703,655.064880 604.285339,614.941101 
	C673.674805,546.956055 700.917725,465.228851 681.201294,369.152649 
	C667.960815,304.632965 634.250671,253.181000 580.778625,213.738495 
z"/>
<path fill="#E8F2E8" opacity="1.000000" stroke="none" 
	d="
M835.916260,374.868408 
	C834.045471,365.630951 832.253540,355.871124 830.275085,346.149261 
	C818.079346,286.219971 793.392883,231.863480 757.106934,181.927689 
	C757.025818,180.414612 757.047241,179.623093 757.068665,178.831573 
	C761.786743,185.738312 766.588501,192.589706 771.201416,199.565964 
	C776.844116,208.099655 782.816040,216.468597 787.752625,225.402222 
	C793.357056,235.544586 798.083862,246.181458 802.988708,256.698212 
	C807.768982,266.947754 812.592957,277.196106 816.810120,287.681335 
	C819.158752,293.520721 820.237793,299.862915 822.017700,305.940826 
	C824.231934,313.501984 826.957092,320.934662 828.770386,328.586609 
	C830.911926,337.623505 832.502502,346.805450 833.972107,355.982147 
	C834.945007,362.056885 835.285400,368.232910 835.916260,374.868408 
z"/>
<path fill="#F0F8F0" opacity="1.000000" stroke="none" 
	d="
M181.981995,88.952316 
	C167.470108,100.823395 152.504974,112.187859 138.545670,124.676575 
	C113.539856,147.048065 92.222412,172.717911 73.048470,200.868469 
	C71.641342,201.021683 70.889252,201.006348 70.137161,200.991028 
	C73.100250,196.885513 76.024086,192.750961 79.035896,188.681503 
	C83.237862,183.003937 87.406494,177.297104 91.771332,171.745865 
	C96.730209,165.439087 101.467560,158.878632 107.046410,153.154770 
	C120.245689,139.612457 133.683258,126.285393 147.428680,113.299149 
	C155.011551,106.135101 163.292282,99.684380 171.506577,93.227837 
	C174.350266,90.992676 177.942719,89.710175 181.578903,88.215408 
	C181.970413,88.609627 181.976196,88.780968 181.981995,88.952316 
z"/>
<path fill="#E6EFE7" opacity="1.000000" stroke="none" 
	d="
M182.316498,88.874176 
	C181.976196,88.780968 181.970413,88.609627 181.969788,88.181168 
	C185.787369,84.919884 189.422226,81.648476 193.451569,78.970718 
	C200.458237,74.314346 207.546265,69.731804 214.898575,65.656685 
	C223.662048,60.799404 232.650269,56.320614 241.704254,52.021385 
	C252.626907,46.834827 263.583038,41.667782 274.787537,37.143101 
	C282.674652,33.958050 291.000153,31.858473 299.801453,29.160568 
	C300.985504,29.634504 301.498077,30.222094 302.010620,30.809685 
	C283.849426,37.748947 265.457428,44.146584 247.584671,51.762768 
	C224.563202,61.573006 203.224762,74.571060 182.316498,88.874176 
z"/>
<path fill="#E8F2E8" opacity="1.000000" stroke="none" 
	d="
M476.010559,15.484230 
	C471.697510,15.944174 467.367188,16.131710 463.049133,15.976699 
	C445.012054,15.329186 426.968353,13.841119 408.946991,14.091399 
	C393.569702,14.304958 378.219543,16.472832 362.435089,17.484114 
	C362.010498,16.838896 362.008209,16.485762 362.005951,16.132629 
	C368.884399,14.791935 375.761658,13.445210 382.643188,12.120450 
	C383.285858,11.996729 383.954590,11.983824 384.612457,11.966716 
	C397.649963,11.627645 410.687561,11.040371 423.725342,11.035254 
	C436.258789,11.030335 448.806396,11.381525 461.319031,12.086599 
	C466.252411,12.364590 471.107971,14.023941 476.010559,15.484230 
z"/>
<path fill="#E4EEE5" opacity="1.000000" stroke="none" 
	d="
M729.041870,146.591949 
	C727.878906,146.212219 726.459290,145.685547 725.527466,144.698410 
	C707.409241,125.504234 687.612366,108.230064 666.174927,92.069496 
	C666.419006,90.954750 666.787415,90.448441 667.155762,89.942123 
	C676.111572,97.321945 685.229309,104.515823 693.977966,112.133530 
	C702.849365,119.858025 711.448547,127.903999 719.975769,136.010269 
	C723.259216,139.131683 726.015686,142.807465 729.041870,146.591949 
z"/>
<path fill="#F1F8F1" opacity="1.000000" stroke="none" 
	d="
M666.999268,89.617317 
	C666.787415,90.448441 666.419006,90.954750 666.006836,91.784340 
	C652.721436,83.740013 639.479858,75.372414 626.063599,66.321259 
	C625.943115,65.032700 625.997375,64.427689 626.051575,63.822674 
	C633.711487,68.627007 641.364990,73.441727 649.033447,78.232307 
	C654.960083,81.934731 660.905640,85.606903 666.999268,89.617317 
z"/>
<path fill="#E6EFE6" opacity="1.000000" stroke="none" 
	d="
M603.013916,54.750278 
	C589.879517,49.230618 576.745117,43.710957 563.294800,37.727913 
	C562.983398,36.892944 562.987915,36.521355 562.992371,36.149773 
	C568.087891,37.748550 573.291382,39.071262 578.252930,41.012344 
	C585.277039,43.760300 592.132996,46.940849 599.034119,49.996899 
	C600.185059,50.506557 601.200256,51.322769 602.636353,52.395592 
	C603.000977,53.445995 603.007446,54.098141 603.013916,54.750278 
z"/>
<path fill="#E0EAE1" opacity="1.000000" stroke="none" 
	d="
M70.064644,201.385437 
	C70.889252,201.006348 71.641342,201.021683 72.769348,201.049744 
	C65.331474,214.694763 57.517670,228.327072 49.432961,242.191650 
	C49.109863,241.856613 49.057678,241.289261 48.978279,240.295578 
	C50.723698,235.656754 52.195660,231.283951 54.336857,227.267975 
	C57.871403,220.638657 61.784859,214.207779 65.653183,207.762024 
	C66.915977,205.657837 68.535667,203.767838 70.064644,201.385437 
z"/>
<path fill="#EFF7EF" opacity="1.000000" stroke="none" 
	d="
M521.437439,25.304081 
	C508.021332,22.771877 494.605225,20.239681 481.001282,17.355446 
	C484.325989,17.198719 487.859161,17.220148 491.345856,17.633549 
	C495.664612,18.145603 499.965576,18.876102 504.236206,19.707479 
	C509.074890,20.649433 513.863586,21.845732 518.692200,22.843361 
	C519.812988,23.074923 521.007568,22.949738 522.522644,23.413757 
	C522.397278,24.327238 521.917358,24.815662 521.437439,25.304081 
z"/>
<path fill="#E1EBE2" opacity="1.000000" stroke="none" 
	d="
M361.559814,16.066456 
	C362.008209,16.485762 362.010498,16.838896 362.012573,17.456898 
	C348.987244,20.233219 335.962128,22.744669 322.500061,24.906174 
	C322.039062,24.082287 322.015045,23.608347 321.990997,23.134411 
	C328.985168,21.563715 335.941559,19.789118 342.985046,18.484699 
	C348.975800,17.375240 355.066956,16.807625 361.559814,16.066456 
z"/>
<path fill="#E4EEE5" opacity="1.000000" stroke="none" 
	d="
M757.054626,178.476501 
	C757.047241,179.623093 757.025818,180.414612 757.001587,181.602112 
	C752.124329,175.798737 747.249878,169.599350 742.720825,163.169128 
	C746.061401,165.640671 749.228577,168.180115 751.993347,171.100510 
	C753.956909,173.174683 755.377563,175.762756 757.054626,178.476501 
z"/>
<path fill="#DEE9DF" opacity="1.000000" stroke="none" 
	d="
M521.742432,25.544298 
	C521.917358,24.815662 522.397278,24.327238 522.933960,23.489712 
	C526.405884,24.240961 529.779724,25.502792 533.249023,26.391905 
	C536.164124,27.138990 539.190430,27.451965 542.567566,28.412552 
	C542.962585,29.619282 542.957581,30.370583 542.952576,31.121881 
	C535.984192,29.342756 529.015808,27.563633 521.742432,25.544298 
z"/>
<path fill="#F4FAF4" opacity="1.000000" stroke="none" 
	d="
M543.219971,31.361870 
	C542.957581,30.370583 542.962585,29.619282 542.988647,28.492893 
	C548.302612,30.072998 553.611206,31.987638 558.876587,34.014332 
	C560.066650,34.472393 561.106689,35.320316 562.604065,36.069275 
	C562.987915,36.521355 562.983398,36.892944 562.981323,37.543243 
	C556.484985,35.748589 549.986206,33.675220 543.219971,31.361870 
z"/>
<path fill="#F1F8F1" opacity="1.000000" stroke="none" 
	d="
M321.587219,23.062326 
	C322.015045,23.608347 322.039062,24.082287 322.083252,24.911591 
	C315.662048,27.127388 309.220642,28.987820 302.394958,30.828966 
	C301.498077,30.222094 300.985504,29.634504 300.158020,28.995775 
	C301.606934,28.407675 303.359619,27.829947 305.136810,27.341385 
	C310.480560,25.872356 315.833893,24.438080 321.587219,23.062326 
z"/>
<path fill="#E4EEE5" opacity="1.000000" stroke="none" 
	d="
M743.055847,162.573639 
	C742.579956,162.920044 741.855042,163.101532 741.632568,162.845795 
	C737.188416,157.739044 732.802307,152.581848 728.727417,147.183380 
	C735.301514,150.568695 739.666870,155.932785 743.055847,162.573639 
z"/>
<path fill="#EFF7EF" opacity="1.000000" stroke="none" 
	d="
M603.309814,54.949543 
	C603.007446,54.098141 603.000977,53.445995 603.000366,52.467808 
	C608.346008,54.820992 613.685791,57.500217 618.831299,60.701530 
	C618.410156,61.523144 618.183289,61.822666 617.956360,62.122177 
	C613.172791,59.797714 608.389221,57.473259 603.309814,54.949543 
z"/>
<path fill="#E1EBE2" opacity="1.000000" stroke="none" 
	d="
M618.136719,62.406086 
	C618.183289,61.822666 618.410156,61.523144 618.885864,61.084442 
	C621.339905,61.687668 623.545166,62.430069 625.901001,63.497574 
	C625.997375,64.427689 625.943115,65.032700 625.831909,66.089790 
	C623.289001,65.257912 620.802979,63.973946 618.136719,62.406086 
z"/>
<path fill="#E6F0E7" opacity="1.000000" stroke="none" 
	d="
M161.063446,756.832153 
	C180.130753,769.573303 198.548645,783.445923 218.392166,794.834595 
	C269.453644,824.140381 324.708344,840.851318 383.366699,846.179626 
	C389.330994,846.721375 395.309021,847.111633 401.642517,848.060181 
	C402.004944,848.988464 402.005493,849.428772 402.006042,849.869141 
	C398.963593,849.921997 395.921143,849.974915 392.300110,849.752014 
	C391.480469,849.267883 391.206940,849.119141 390.900970,849.030151 
	C388.339996,848.691895 385.787048,848.264648 383.216522,848.031860 
	C375.252289,847.310608 367.237640,846.984192 359.324310,845.905029 
	C349.781769,844.603577 340.237976,843.062988 330.851410,840.934875 
	C320.962616,838.692810 311.238617,835.705139 301.482147,832.905518 
	C296.292816,831.416382 291.022736,830.019409 286.080261,827.901428 
	C277.648987,824.288391 268.432678,823.036804 260.498962,817.609985 
	C254.727127,813.661926 247.218521,812.352844 240.762726,809.281799 
	C230.566116,804.431213 220.418213,799.416260 210.596924,793.857300 
	C202.040634,789.014465 193.754852,783.618713 185.733459,777.926331 
	C177.248245,771.904785 169.216629,765.244080 160.997131,758.167236 
	C161.026047,757.258728 161.044739,757.045471 161.063446,756.832153 
z"/>
<path fill="#EBF4EC" opacity="1.000000" stroke="none" 
	d="
M483.069519,843.801514 
	C499.239044,840.315002 515.611267,837.558350 531.522034,833.139771 
	C547.917480,828.586670 563.863464,822.414734 580.716431,816.965515 
	C581.656677,817.000061 581.886536,817.020142 582.116394,817.040161 
	C579.241577,818.978882 576.594604,821.505249 573.442017,822.727539 
	C567.810425,824.911133 561.829407,826.173096 556.075073,828.065491 
	C547.449158,830.902161 538.940735,834.101868 530.284119,836.836365 
	C526.668701,837.978455 522.787842,838.258667 519.051453,839.043823 
	C512.012085,840.522888 504.990540,842.087036 497.959625,843.606628 
	C497.164276,843.778564 496.356781,843.894653 495.553955,844.030884 
	C491.640900,844.695068 487.727539,845.357239 483.395752,845.688843 
	C483.007996,844.838867 483.038757,844.320190 483.069519,843.801514 
z"/>
<path fill="#F0F9F1" opacity="1.000000" stroke="none" 
	d="
M160.913208,756.538452 
	C161.044739,757.045471 161.026047,757.258728 160.984436,757.792297 
	C154.840973,753.451782 148.716614,748.796021 142.602570,744.126709 
	C141.015793,742.914856 139.299759,741.818237 137.917999,740.400635 
	C127.660866,729.877747 117.464523,719.295410 107.297874,708.684998 
	C106.930748,708.301819 107.069801,707.433777 106.946686,706.418030 
	C108.520958,707.335632 110.215042,708.527527 111.707642,709.933350 
	C128.077530,725.351196 144.416000,740.802490 160.913208,756.538452 
z"/>
<path fill="#E6F0E6" opacity="1.000000" stroke="none" 
	d="
M785.419495,638.047852 
	C785.538147,636.497314 785.871521,634.837036 786.571350,633.349121 
	C794.452698,616.594971 802.390076,599.867126 810.580688,582.893188 
	C811.094116,583.004883 811.339172,583.355652 811.855164,583.882324 
	C810.748901,588.094360 809.663208,592.260498 807.932922,596.138977 
	C804.482361,603.873413 800.899902,611.566956 796.952576,619.056396 
	C793.537720,625.535706 789.542847,631.709351 785.419495,638.047852 
z"/>
<path fill="#F8FAF8" opacity="1.000000" stroke="none" 
	d="
M402.470306,849.935547 
	C402.005493,849.428772 402.004944,848.988464 402.018982,848.218140 
	C418.259552,847.592651 434.486481,847.340576 450.710693,846.969543 
	C454.513885,846.882629 458.307831,846.392883 462.538025,846.413330 
	C462.976379,847.113342 462.982758,847.488464 462.989136,847.863647 
	C443.088531,851.879028 422.952789,849.289856 402.470306,849.935547 
z"/>
<path fill="#E6F0E6" opacity="1.000000" stroke="none" 
	d="
M757.432007,681.049316 
	C757.157776,680.285339 756.998291,679.345215 757.381042,678.759460 
	C766.368042,665.009949 775.413513,651.298767 784.766541,637.802124 
	C783.400635,641.599854 782.119141,645.442749 779.958618,648.703186 
	C772.741821,659.593933 765.210388,670.276123 757.432007,681.049316 
z"/>
<path fill="#E8F2E8" opacity="1.000000" stroke="none" 
	d="
M602.968628,806.921692 
	C617.074463,798.975891 631.180359,791.030029 645.894287,783.045776 
	C646.675720,783.008423 646.849121,783.009521 647.022583,783.010620 
	C645.798462,784.355469 644.776123,785.998718 643.312073,786.988647 
	C639.113647,789.827148 634.819763,792.548645 630.407227,795.039612 
	C625.407898,797.861877 620.281982,800.470886 615.129822,803.007446 
	C611.434875,804.826660 607.606262,806.374390 603.421448,807.786804 
	C602.993286,807.327454 602.980957,807.124573 602.968628,806.921692 
z"/>
<path fill="#E6F0E6" opacity="1.000000" stroke="none" 
	d="
M722.406372,722.039551 
	C722.109802,721.426025 721.925537,720.565857 722.271667,720.173340 
	C731.326660,709.903992 740.436707,699.683167 749.805481,689.747803 
	C747.061096,694.320129 744.391052,698.899292 740.959412,702.810120 
	C735.148254,709.432678 728.855896,715.633057 722.406372,722.039551 
z"/>
<path fill="#E6F0E6" opacity="1.000000" stroke="none" 
	d="
M647.409485,783.007935 
	C646.849121,783.009521 646.675720,783.008423 646.242310,783.000610 
	C657.835083,774.475525 669.687805,765.957275 681.806274,757.746277 
	C680.491028,759.781311 679.145325,761.832703 677.289124,763.181946 
	C668.302307,769.713989 659.188049,776.071472 650.081177,782.436646 
	C649.480591,782.856506 648.565308,782.826172 647.409485,783.007935 
z"/>
<path fill="#F0F9F1" opacity="1.000000" stroke="none" 
	d="
M87.074799,680.850159 
	C94.172142,689.034851 100.871262,697.292603 107.260223,705.812500 
	C103.975380,703.513733 100.581329,701.298950 98.118355,698.315491 
	C93.770828,693.049011 89.990829,687.314026 85.924545,681.409424 
	C86.142746,681.003479 86.409653,680.963318 87.074799,680.850159 
z"/>
<path fill="#E6F0E6" opacity="1.000000" stroke="none" 
	d="
M701.400879,742.041748 
	C701.096069,741.577332 700.958740,740.876160 701.236877,740.611267 
	C707.981689,734.188843 714.770935,727.812988 721.811646,721.736267 
	C719.356323,725.237610 716.867004,728.664062 713.870361,731.566772 
	C710.048645,735.268616 705.817017,738.547241 701.400879,742.041748 
z"/>
<path fill="#E6F0E6" opacity="1.000000" stroke="none" 
	d="
M682.418213,758.059692 
	C682.511902,757.286804 682.807434,756.298218 683.466797,755.737183 
	C689.117920,750.928528 694.834717,746.197144 700.802490,741.742554 
	C698.740417,744.611938 696.635803,747.448059 694.019348,749.685913 
	C690.481567,752.711914 686.550842,755.278503 682.418213,758.059692 
z"/>
<path fill="#DAE8DB" opacity="1.000000" stroke="none" 
	d="
M463.442322,847.940796 
	C462.982758,847.488464 462.976379,847.113342 462.969849,846.456543 
	C469.402802,845.348938 475.835876,844.522949 482.669250,843.749207 
	C483.038757,844.320190 483.007996,844.838867 482.991272,845.617126 
	C476.635376,846.590454 470.265411,847.304260 463.442322,847.940796 
z"/>
<path fill="#DEE9DF" opacity="1.000000" stroke="none" 
	d="
M582.525635,817.033264 
	C581.886536,817.020142 581.656677,817.000061 581.084229,816.930542 
	C586.304688,814.415527 591.867615,811.949951 597.753784,809.756836 
	C594.610901,815.783691 588.430725,815.664551 582.525635,817.033264 
z"/>
<path fill="#E6F0E6" opacity="1.000000" stroke="none" 
	d="
M750.422974,690.040161 
	C752.215515,686.857605 754.381958,683.648743 756.810059,680.747192 
	C754.980164,684.041077 752.888489,687.027527 750.422974,690.040161 
z"/>
<path fill="#DEE9DF" opacity="1.000000" stroke="none" 
	d="
M602.612671,806.972656 
	C602.980957,807.124573 602.993286,807.327454 603.027954,807.834473 
	C601.639282,808.763245 600.228333,809.387817 598.412537,810.049988 
	C599.424011,809.066284 600.840393,808.044922 602.612671,806.972656 
z"/>
<path fill="#F8FAF8" opacity="1.000000" stroke="none" 
	d="
M390.972229,849.293823 
	C391.206940,849.119141 391.480469,849.267883 391.850159,849.672729 
	C391.666992,849.765320 391.355255,849.661377 390.972229,849.293823 
z"/>
<path fill="#FDFEFD" opacity="1.000000" stroke="none" 
	d="
M581.081787,213.927963 
	C634.250671,253.181000 667.960815,304.632965 681.201294,369.152649 
	C700.917725,465.228851 673.674805,546.956055 604.285339,614.941101 
	C563.332703,655.064880 513.018677,676.246155 456.440369,683.144287 
	C403.247406,689.629700 353.028778,679.832642 305.610565,655.200562 
	C301.739258,653.189514 298.339264,652.975342 294.236359,654.303833 
	C250.239105,668.550171 206.195328,682.652771 162.158417,696.776489 
	C160.474899,697.316467 158.732239,697.672180 156.142838,698.338806 
	C160.124252,686.445984 163.836395,675.328674 167.567505,664.217773 
	C178.740036,630.946899 189.851425,597.655151 201.186050,564.439575 
	C202.565247,560.397949 202.140213,557.239380 200.083176,553.633850 
	C174.485458,508.766479 162.790497,460.449707 166.051666,408.929199 
	C170.601135,337.056152 199.718674,276.686829 253.549362,228.695328 
	C304.745880,183.052292 365.146454,161.670639 433.472626,163.154907 
	C487.807739,164.335266 537.057556,181.207321 581.081787,213.927963 
M213.313690,468.059906 
	C219.345596,496.586243 230.505936,522.937012 247.180130,546.860352 
	C249.692108,550.464417 249.794266,553.464294 248.418610,557.443726 
	C240.483978,580.396973 232.798080,603.436279 225.050995,626.454163 
	C224.497894,628.097534 224.129059,629.802979 223.507004,632.097534 
	C225.523666,631.566284 226.783707,631.294128 228.005936,630.903687 
	C252.090210,623.208374 276.211304,615.624023 300.214447,607.683105 
	C304.771057,606.175659 308.251434,606.488831 312.343201,608.998535 
	C358.332184,637.206055 408.101471,647.251770 461.350525,638.724304 
	C581.984558,619.405640 663.032959,503.422455 640.106140,383.287079 
	C618.647034,270.842041 513.769348,193.560333 400.291016,208.049561 
	C325.825104,217.557556 270.200500,256.583679 234.312897,322.397125 
	C209.573578,367.766052 203.402924,416.492310 213.313690,468.059906 
z"/>
<path fill="#0D9F16" opacity="1.000000" stroke="none" 
	d="
M213.229065,467.642395 
	C203.402924,416.492310 209.573578,367.766052 234.312897,322.397125 
	C270.200500,256.583679 325.825104,217.557556 400.291016,208.049561 
	C513.769348,193.560333 618.647034,270.842041 640.106140,383.287079 
	C663.032959,503.422455 581.984558,619.405640 461.350525,638.724304 
	C408.101471,647.251770 358.332184,637.206055 312.343201,608.998535 
	C308.251434,606.488831 304.771057,606.175659 300.214447,607.683105 
	C276.211304,615.624023 252.090210,623.208374 228.005936,630.903687 
	C226.783707,631.294128 225.523666,631.566284 223.507004,632.097534 
	C224.129059,629.802979 224.497894,628.097534 225.050995,626.454163 
	C232.798080,603.436279 240.483978,580.396973 248.418610,557.443726 
	C249.794266,553.464294 249.692108,550.464417 247.180130,546.860352 
	C230.505936,522.937012 219.345596,496.586243 213.229065,467.642395 
M367.989105,312.527496 
	C367.091888,310.380493 366.128235,308.258453 365.310028,306.081757 
	C362.891724,299.648346 358.316986,296.741730 351.433167,297.041962 
	C348.289490,297.179077 345.111603,296.793243 341.962860,296.498688 
	C335.165955,295.862946 329.056854,297.508850 323.838837,301.951202 
	C312.019836,312.013367 303.329346,324.225769 299.134796,339.289124 
	C292.459930,363.259552 297.132721,385.824493 308.475739,407.287933 
	C320.646179,430.317078 334.968048,451.959747 352.030670,471.689331 
	C375.604340,498.947754 402.146362,522.321167 436.438263,535.434631 
	C448.550385,540.066406 460.612244,544.831665 472.658875,549.631836 
	C486.457520,555.130066 500.680939,556.198242 514.753967,551.859619 
	C550.463745,540.850586 559.392883,526.335083 561.936462,497.890228 
	C562.367188,493.073853 560.673828,489.860413 556.514709,487.701660 
	C538.654907,478.431763 520.857056,469.040039 502.915192,459.932037 
	C496.371490,456.610199 493.768738,457.466431 488.989990,462.955750 
	C481.991241,470.995178 475.017090,479.056610 467.953400,487.038666 
	C463.059052,492.569336 460.618317,492.978149 453.945190,490.068665 
	C415.966553,473.509827 387.182861,446.873932 366.935150,410.841156 
	C361.366547,400.931244 361.706848,399.637543 369.318817,391.315979 
	C374.684052,385.450592 379.612701,379.154388 384.375641,372.781006 
	C387.350067,368.800873 387.429474,364.232361 385.605499,359.485016 
	C379.701233,344.117889 373.968018,328.685028 367.989105,312.527496 
z"/>
<path fill="#FEFEFE" opacity="1.000000" stroke="none" 
	d="
M368.079010,312.902496 
	C373.968018,328.685028 379.701233,344.117889 385.605499,359.485016 
	C387.429474,364.232361 387.350067,368.800873 384.375641,372.781006 
	C379.612701,379.154388 374.684052,385.450592 369.318817,391.315979 
	C361.706848,399.637543 361.366547,400.931244 366.935150,410.841156 
	C387.182861,446.873932 415.966553,473.509827 453.945190,490.068665 
	C460.618317,492.978149 463.059052,492.569336 467.953400,487.038666 
	C475.017090,479.056610 481.991241,470.995178 488.989990,462.955750 
	C493.768738,457.466431 496.371490,456.610199 502.915192,459.932037 
	C520.857056,469.040039 538.654907,478.431763 556.514709,487.701660 
	C560.673828,489.860413 562.367188,493.073853 561.936462,497.890228 
	C559.392883,526.335083 550.463745,540.850586 514.753967,551.859619 
	C500.680939,556.198242 486.457520,555.130066 472.658875,549.631836 
	C460.612244,544.831665 448.550385,540.066406 436.438263,535.434631 
	C402.146362,522.321167 375.604340,498.947754 352.030670,471.689331 
	C334.968048,451.959747 320.646179,430.317078 308.475739,407.287933 
	C297.132721,385.824493 292.459930,363.259552 299.134796,339.289124 
	C303.329346,324.225769 312.019836,312.013367 323.838837,301.951202 
	C329.056854,297.508850 335.165955,295.862946 341.962860,296.498688 
	C345.111603,296.793243 348.289490,297.179077 351.433167,297.041962 
	C358.316986,296.741730 362.891724,299.648346 365.310028,306.081757 
	C366.128235,308.258453 367.091888,310.380493 368.079010,312.902496 
z"/>
</svg>